<?xml version="1.0" encoding="utf-8"?>
<!-- Generator: Adobe Illustrator 21.1.0, SVG Export Plug-In . SVG Version: 6.00 Build 0)  -->
<svg version="1.1" id="Layer_1" xmlns="http://www.w3.org/2000/svg" xmlns:xlink="http://www.w3.org/1999/xlink" x="0px" y="0px"
	 viewBox="0 0 1000 1000" style="enable-background:new 0 0 1000 1000;" xml:space="preserve">
<g>
	<path d="M668.4,502.9c-9.3,0-15.9,7-15.9,16.1c0,9.1,6.6,16.2,15.9,16.2c9.3,0,15.9-7.1,15.9-16.2
		C684.2,509.9,677.6,502.9,668.4,502.9z"/>
	<path d="M276.5,502.9c-9.3,0-15.9,7-15.9,16.1c0,9.1,6.6,16.2,15.9,16.2c9.3,0,15.9-7.1,15.9-16.2
		C292.4,509.9,285.8,502.9,276.5,502.9z"/>
	<path d="M351.9,502.9c-9.3,0-15.9,7-15.9,16.1c0,9.1,6.6,16.2,15.9,16.2c9.3,0,15.9-7.1,15.9-16.2
		C367.8,509.9,361.1,502.9,351.9,502.9z"/>
	<path d="M425.4,500c-6,0-12.2,3.8-13.5,11.5H439C437.7,503.7,431.4,500,425.4,500z"/>
	<path d="M500,0C223.9,0,0,223.9,0,500s223.9,500,500,500s500-223.9,500-500S776.1,0,500,0z M197.7,547.6h-17.2v-39.2h-37.3v39.2
		H126v-88.1h17.2v34.1h37.3v-34.1h17.2V547.6z M231.5,547.6h-16.1v-57.2h16.1V547.6z M223.5,475.9c-5.3,0-9.7-4.4-9.7-9.6
		c0-5.3,4.4-9.6,9.7-9.6c5.3,0,9.7,4.4,9.7,9.6C233.1,471.6,228.8,475.9,223.5,475.9z M306.9,547.6h-16.1v-7.4
		c-5.8,8.3-13.5,9.2-17.6,9.2c-17.6,0-29.2-13.7-29.2-30.5c0-16.9,11.5-30.4,28.4-30.4c4.4,0,13,0.8,18.4,9.2v-46.5h16.1V547.6z
		 M382.3,547.6h-16.1v-7.4c-5.8,8.3-13.5,9.2-17.6,9.2c-17.6,0-29.2-13.7-29.2-30.5c0-16.9,11.5-30.4,28.4-30.4
		c4.4,0,13,0.8,18.4,9.2v-46.5h16.1V547.6z M454.3,521.8h-42.9c0,3.4,0.9,7.1,2.8,9.6c1.7,2.4,5.3,5.4,11.5,5.4
		c6.1,0,10.7-2.9,13.4-7.5l14.8,2.4c-1.7,4.2-8.2,17.8-28.2,17.8c-9.3,0-16.3-2.6-22-8.1c-6.3-5.9-9-13.3-9-22.3
		c0-11.4,4.6-18.4,8.7-22.4c6.7-6.6,14.7-8.1,21.6-8.1c11.6,0,18.4,4.6,22.4,9.4c6.1,7.3,6.9,16.2,6.9,22.5V521.8z M522,547.6h-16.1
		v-31.2c0-3.2-0.1-8.2-3-11.2c-2.5-2.6-6-2.9-7.5-2.9c-4.2,0-7.5,1.5-9.9,5c-2.4,3.7-2.5,7.8-2.5,11.1v29.2h-16.1v-57.2h16.1v7.4
		c3-4.2,8.5-9.2,17.7-9.2c5,0,12.4,1.5,16.9,7c4,4.9,4.5,10.6,4.5,16.1V547.6z M595.4,549.6c-16.3,0-25.8-9.9-30.4-16.6l11.2-10.7
		c4.2,8.6,12.3,11.8,18.5,11.8c7.8,0,13.6-4.8,13.6-12.2c0-3.2-1.1-5.7-3.4-7.9c-3.3-3-8.6-4.8-13.6-6.5c-4.6-1.6-10.2-3.7-14.7-7.7
		c-2.9-2.5-7-7.4-7-16.4c0-12.9,8.7-25.9,28.3-25.9c5.6,0,16,1.1,25,10.3l-9,11.8c-5.2-6.9-11.2-7.5-14.4-7.5
		c-9.3,0-12.2,5.8-12.2,10.3c0,2.1,0.7,4.1,2.8,5.9c2.1,2,5,3,10.6,5c6.9,2.4,13.4,4.8,17.9,8.8c4,3.6,7.5,9.5,7.5,18.5
		C626,537.9,613.6,549.6,595.4,549.6z M698.8,547.6h-16.1v-7.4c-5.8,8.3-13.5,9.2-17.6,9.2c-17.6,0-29.2-13.7-29.2-30.5
		c0-16.9,11.5-30.4,28.4-30.4c4.4,0,13,0.8,18.4,9.2v-7.4h16.1V547.6z M730.3,547.6h-16.1v-96.3h16.1V547.6z M798.6,541.4
		c-4.9,4.5-12.3,8.1-23.1,8.1c-10.8,0-18.3-3.6-23.1-8.1c-5.7-5.2-9.7-13.1-9.7-22.3c0-9.4,4-17.3,9.7-22.4
		c4.9-4.5,12.3-8.1,23.1-8.1c10.8,0,18.3,3.6,23.1,8.1c5.7,5.2,9.7,13.1,9.7,22.4C808.3,528.4,804.3,536.3,798.6,541.4z
		 M859.9,547.6v-31.2c0-3.2-0.1-8.2-3-11.2c-2.5-2.6-6-2.9-7.5-2.9c-4.2,0-7.5,1.5-9.9,5c-2.4,3.7-2.5,7.8-2.5,11.1v29.2h-16.1
		v-57.2h16.1v7.4c3-4.2,8.5-9.2,17.7-9.2c5,0,12.4,1.5,16.9,7c4,4.9,4.5,10.6,4.5,16.1v35.9H859.9z"/>
	<path d="M775.5,502.9c-9.3,0-16.1,7.3-16.1,16.2c0,8.7,6.7,16.1,16.1,16.1c9.4,0,16.1-7.4,16.1-16.1
		C791.6,510.1,784.7,502.9,775.5,502.9z"/>
</g>
</svg>
