<?xml version="1.0" encoding="utf-8"?>
<!-- Generator: Adobe Illustrator 21.1.0, SVG Export Plug-In . SVG Version: 6.00 Build 0)  -->
<svg version="1.1" id="Layer_1" xmlns="http://www.w3.org/2000/svg" xmlns:xlink="http://www.w3.org/1999/xlink" x="0px" y="0px"
	 viewBox="0 0 512 512" style="enable-background:new 0 0 512 512;" xml:space="preserve">
<style type="text/css">
	.st0{opacity:0.5;fill:none;}
</style>
<g>
	<rect class="st0" width="512" height="512"/>
	<g>
		<path d="M59.7,221.3h129.6V102.7h59.8v306.6h-59.8V272.8H59.7v136.5H0V102.7h59.7V221.3z"/>
		<path d="M469.7,172.6c-17.9-23.9-39.1-26.2-50.1-26.2c-32.2,0-42.3,20.2-42.3,35.9c0,7.4,2.3,14.2,9.7,20.7
			c7.4,6.9,17.5,10.6,36.8,17.5c23.9,8.3,46.4,16.5,62,30.8c13.8,12.4,26.2,33.1,26.2,64.3c0,59.8-43.2,100.7-106.6,100.7
			c-56.5,0-89.6-34.5-105.7-57.9l39.1-37.2c14.7,29.9,42.7,40.9,64.4,40.9c27.1,0,47.3-16.5,47.3-42.3c0-11-3.7-19.8-11.9-27.6
			c-11.5-10.6-29.9-16.5-47.3-22.5c-16.1-5.5-35.4-12.9-51-26.7c-10.1-8.7-24.4-25.7-24.4-57c0-45,30.3-90.1,98.4-90.1
			c19.3,0,55.6,3.7,86.9,35.8L469.7,172.6z"/>
	</g>
	<rect width="128" height="53.3"/>
	<rect x="192" width="128" height="53.3"/>
	<rect x="384" width="128" height="53.3"/>
	<rect y="458.7" width="128" height="53.3"/>
	<rect x="192" y="458.7" width="128" height="53.3"/>
	<rect x="384" y="458.7" width="128" height="53.3"/>
</g>
</svg>
